# xmcd
#
# Track frame offsets: 
#        150
#        10039
#        18909
#        29129
#        41188
#        49186
#
# Disc length: 753 seconds
#
# Revision: 0
# Processed by: cddbd v1.5.2PL0 Copyright (c) Steve Scherf et al.
# Submitted via: ExactAudioCopy v1.0b3
#
DISCID=4702ef06
DTITLE=하헌진 - 개 [EP]
DYEAR=2011
DGENRE=Blues
TTITLE0=새로운 낮, 새로운 나
TTITLE1=그댈 사랑하는 내 마음
TTITLE2=술과 돈
TTITLE3=그댄 내 속도 모르고
TTITLE4=개
TTITLE5=내일 또 다시 만나
EXTD=
EXTT0=
EXTT1=
EXTT2=
EXTT3=
EXTT4=
EXTT5=
PLAYORDER=
